<svg xmlns="http://www.w3.org/2000/svg" width="280" height="52" viewBox="0 0 280 52">
  <a href="YOUR_GITHUB_REPO_LINK" target="_blank">
    <rect x="34" y="8" width="234" height="36" rx="18" fill="#111111"/>
    <circle cx="34" cy="26" r="18" fill="#ffffff"/>
    <circle cx="34" cy="26" r="18" fill="none" stroke="#d9d9d9" stroke-width="2"/>

    <!-- GitHub icon (simple) -->
    <g transform="translate(20,14)" fill="#111111">
      <path d="M14 2c-6.6 0-12 5.4-12 12 0 5.3 3.4 9.8 8.1 11.4.6.1.8-.3.8-.6v-2.2
      c-3.3.7-4-1.6-4-1.6-.5-1.3-1.2-1.6-1.2-1.6-1-.7.1-.7.1-.7 1.1.1 1.7 1.2 1.7 1.2
      1 .1 1.7-1.4 1.7-1.4.9-1.6 2.3-1.1 2.9-.9.1-.7.4-1.1.7-1.4
      -2.6-.3-5.4-1.3-5.4-5.9 0-1.3.5-2.4 1.2-3.2-.1-.3-.5-1.5.1-3.1
      0 0 1-.3 3.3 1.2.9-.3 2-.4 3-.4s2.1.1 3 .4c2.3-1.5 3.3-1.2 3.3-1.2
      .6 1.6.2 2.8.1 3.1.7.8 1.2 1.9 1.2 3.2 0 4.6-2.8 5.6-5.4 5.9
      .4.4.8 1.1.8 2.2v3.3c0 .3.2.7.8.6C22.6 23.8 26 19.3 26 14
      26 7.4 20.6 2 14 2z"/>
    </g>

    <text x="170" y="31" font-family="Arial, sans-serif" font-weight="700" font-size="15"
          text-anchor="middle" fill="#ffffff" letter-spacing="1">
      GITHUB REPO
    </text>
  </a>
</svg>
