<svg xmlns="http://www.w3.org/2000/svg" width="260" height="52" viewBox="0 0 260 52">

  <!-- Clickable link -->
  <a href="https://wa.me/919999999999" target="_blank">

    <!-- Green pill -->
    <rect x="34" y="8" width="214" height="36" rx="18" fill="#25D366"/>

    <!-- Left white circle -->
    <circle cx="34" cy="26" r="18" fill="#ffffff" opacity="0.98"/>
    <circle cx="34" cy="26" r="18" fill="none" stroke="#d9d9d9" stroke-width="2"/>

    <!-- WhatsApp icon (green bubble + white handset) -->
    <g transform="translate(34 26)">
      <!-- bubble -->
      <path d="M0-12c-6.7 0-12.1 4.9-12.1 10.9 0 2 .6 4 1.8 5.7L-12 12
               l7.3-2.3c1.4.6 3 .9 4.7.9C6.7 10.6 12.1 5.7 12.1-.3 12.1-7.1 6.7-12 0-12z"
            fill="#25D366"/>

      <!-- handset -->
      <path d="M-4.2-3.8c.2-.8.8-1 1.4-.8l2.2.9c.6.3.8.8.6 1.3l-.8 1.8
               c.8 1.3 2.2 2.7 3.5 3.5l1.8-.8c.5-.2 1 0 1.3.6l.9 2.2c.2.6 0 1.2-.8 1.4
               c-1.8.6-4.7-.5-7.2-3.1-2.6-2.5-3.7-5.4-3.1-7.1z"
            fill="#ffffff"/>
    </g>

    <!-- Text -->
    <text x="150" y="31"
          font-family="Arial, sans-serif"
          font-weight="700"
          font-size="16"
          text-anchor="middle"
          fill="#ffffff"
          letter-spacing="1">
      WHATSAPP
    </text>

  </a>
</svg>
